adjusted_angles_states
version=1
nRows=13
nColumns=49
inDegrees=yes

# SIMM Motion File Header:
name adjusted_angles_states
datacolumns 49
datarows 13
otherdata 1
range 0.00000000 0.00020632
endheader
time	/jointset/bb/crank_angle/value	/jointset/bb/crank_angle/speed	/jointset/spindle/pedal_angle_r/value	/jointset/spindle/pedal_angle_r/speed	/jointset/ground_pelvis/pelvis_tilt/value	/jointset/ground_pelvis/pelvis_tilt/speed	/jointset/ground_pelvis/pelvis_list/value	/jointset/ground_pelvis/pelvis_list/speed	/jointset/ground_pelvis/pelvis_rotation/value	/jointset/ground_pelvis/pelvis_rotation/speed	/jointset/ground_pelvis/pelvis_tx/value	/jointset/ground_pelvis/pelvis_tx/speed	/jointset/ground_pelvis/pelvis_ty/value	/jointset/ground_pelvis/pelvis_ty/speed	/jointset/ground_pelvis/pelvis_tz/value	/jointset/ground_pelvis/pelvis_tz/speed	/jointset/hip_r/hip_angle_r/value	/jointset/hip_r/hip_angle_r/speed	/jointset/hip_r/hip_adduction_r/value	/jointset/hip_r/hip_adduction_r/speed	/jointset/hip_r/hip_rotation_r/value	/jointset/hip_r/hip_rotation_r/speed	/jointset/knee_r/knee_angle_r/value	/jointset/knee_r/knee_angle_r/speed	/jointset/knee_r/tib_tx_r/value	/jointset/knee_r/tib_tx_r/speed	/jointset/knee_r/tib_ty_r/value	/jointset/knee_r/tib_ty_r/speed	/jointset/tib_pat_r/pat_angle_r/value	/jointset/tib_pat_r/pat_angle_r/speed	/jointset/tib_pat_r/pat_tx_r/value	/jointset/tib_pat_r/pat_tx_r/speed	/jointset/tib_pat_r/pat_ty_r/value	/jointset/tib_pat_r/pat_ty_r/speed	/jointset/ankle_r/ankle_angle_r/value	/jointset/ankle_r/ankle_angle_r/speed	/jointset/subtalar_r/subtalar_angle_r/value	/jointset/subtalar_r/subtalar_angle_r/speed	/jointset/mtp_r/mtp_angle_r/value	/jointset/mtp_r/mtp_angle_r/speed	/forceset/bifemlh_r/activation	/forceset/bifemlh_r/fiber_length	/forceset/bifemsh_r/activation	/forceset/bifemsh_r/fiber_length	/forceset/glut_max2_r/activation	/forceset/glut_max2_r/fiber_length	/forceset/vas_int_r/activation	/forceset/vas_int_r/fiber_length
      0.00000000	     -9.41282536	      0.00000000	      8.86675232	      0.00000000	     -0.00000000	      0.00000000	     -0.00000000	      0.00000000	      0.00000000	      0.00000000	     -0.14965250	      0.00000000	     -0.06584239	      0.00000000	      0.00000000	      0.00000000	     86.50581155	      0.00000000	      4.09827073	      0.00000000	     -3.61026836	      0.00000000	   -113.48031893	      0.00000000	     -0.00147600	      0.00000000	     -0.49394344	      0.00000000	     17.64872092	      0.00000000	      0.02267676	      0.00000000	     -0.02408539	      0.00000000	     27.10314981	      0.00000000	      0.00000000	      0.00000000	     -0.00000000	      0.00000000	      0.05000000	      0.10000000	      0.05000000	      0.10000000	      0.05000000	      0.10000000	      0.05000000	      0.10000000
      0.00000170	     -9.41282568	     -0.37749051	      8.86675272	      0.47828948	     -0.00000000	     -0.00000000	      0.00000000	     -0.00000000	      0.00000000	      0.00000000	     -0.14965250	     -0.00000000	     -0.06584239	      0.00000000	      0.00000000	      0.00000000	     86.50581156	      0.01256858	      4.09827073	      0.00123361	     -3.61026835	      0.01236853	   -113.48031882	      0.12374375	     -0.00147600	      0.00003978	     -0.49394344	      0.00004056	     17.64872092	     -0.00017099	      0.02267676	      0.00005948	     -0.02408539	      0.00000952	     27.10314978	     -0.03659991	     -0.00000000	     -0.00000000	      0.00000000	      0.00000000	      0.04999927	      0.10065521	      0.04999927	      0.11066726	      0.04999927	      0.10379280	      0.05028018	      0.10268017
      0.00000339	     -9.41282664	     -0.74538302	      8.86675393	      0.94441807	     -0.00000000	     -0.00000000	     -0.00000000	     -0.00000000	      0.00000000	     -0.00000000	     -0.14965250	     -0.00000000	     -0.06584239	     -0.00000000	      0.00000000	      0.00000000	     86.50581160	      0.02481759	      4.09827074	      0.00243586	     -3.61026832	      0.02442259	   -113.48031851	      0.24434122	     -0.00147600	      0.00007855	     -0.49394344	      0.00008008	     17.64872092	     -0.00033764	      0.02267676	      0.00011744	     -0.02408539	      0.00001880	     27.10314968	     -0.07226925	     -0.00000000	     -0.00000000	      0.00000000	      0.00000000	      0.04999854	      0.10129660	      0.04999854	      0.11752593	      0.04999854	      0.10721835	      0.05056007	      0.10518926
      0.00000611	     -9.41282944	     -1.31061114	      8.86675749	      1.66057557	     -0.00000000	     -0.00000000	     -0.00000000	     -0.00000000	      0.00000000	      0.00000000	     -0.14965250	     -0.00000000	     -0.06584239	     -0.00000000	      0.00000000	     -0.00000000	     86.50581169	      0.04363687	      4.09827075	      0.00428299	     -3.61026823	      0.04294238	   -113.48031759	      0.42962657	     -0.00147600	      0.00013812	     -0.49394344	      0.00014081	     17.64872091	     -0.00059368	      0.02267676	      0.00020650	     -0.02408539	      0.00003306	     27.10314941	     -0.12707143	     -0.00000000	     -0.00000000	      0.00000000	      0.00000000	      0.04999736	      0.10229721	      0.04999736	      0.12490840	      0.04999736	      0.11208086	      0.05100821	      0.10890117
      0.00001021	     -9.41283645	     -2.10174809	      8.86676636	      2.66296492	      0.00000000	      0.00000000	     -0.00000000	      0.00000000	      0.00000000	      0.00000000	     -0.14965250	      0.00000000	     -0.06584239	     -0.00000000	      0.00000000	      0.00000000	     86.50581192	      0.06997769	      4.09827077	      0.00686837	     -3.61026800	      0.06886411	   -113.48031529	      0.68896635	     -0.00147600	      0.00022149	     -0.49394344	      0.00022581	     17.64872091	     -0.00095204	      0.02267677	      0.00033115	     -0.02408539	      0.00005302	     27.10314873	     -0.20377680	     -0.00000000	     -0.00000000	      0.00000000	      0.00000000	      0.04999560	      0.10374210	      0.04999560	      0.13177922	      0.04999560	      0.11824691	      0.05168125	      0.11387985
      0.00001659	     -9.41285346	     -3.19995138	      8.86678793	      4.05441458	      0.00000000	      0.00000000	      0.00000000	      0.00000000	      0.00000000	      0.00000000	     -0.14965250	     -0.00000000	     -0.06584239	      0.00000000	      0.00000000	      0.00000000	     86.50581249	      0.10654191	      4.09827082	      0.01045723	     -3.61026744	      0.10484695	   -113.48030972	      1.04896478	     -0.00147600	      0.00033722	     -0.49394344	      0.00034380	     17.64872090	     -0.00144950	      0.02267677	      0.00050418	     -0.02408539	      0.00008072	     27.10314708	     -0.31025411	     -0.00000000	     -0.00000000	      0.00000000	     -0.00000000	      0.04999285	      0.10586189	      0.04999284	      0.13764817	      0.04999284	      0.12584934	      0.05272824	      0.12049224
      0.00002813	     -9.41290014	     -4.81787323	      8.86684706	      6.10435969	     -0.00000000	     -0.00000000	      0.00000000	     -0.00000000	      0.00000000	      0.00000000	     -0.14965250	      0.00000000	     -0.06584239	      0.00000000	      0.00000000	      0.00000000	     86.50581404	      0.16040847	      4.09827098	      0.01574451	     -3.61026591	      0.15785858	   -113.48029442	      1.57933178	     -0.00147599	      0.00050772	     -0.49394344	      0.00051762	     17.64872088	     -0.00218240	      0.02267678	      0.00075911	     -0.02408539	      0.00012153	     27.10314256	     -0.46712140	     -0.00000000	     -0.00000000	      0.00000000	      0.00000000	      0.04998787	      0.10932279	      0.04998787	      0.14208667	      0.04998787	      0.13548687	      0.05460950	      0.12982758
      0.00003967	     -9.41296319	     -6.05615829	      8.86692695	      7.67329557	     -0.00000000	     -0.00000000	      0.00000000	     -0.00000000	      0.00000000	      0.00000000	     -0.14965250	      0.00000000	     -0.06584239	      0.00000000	      0.00000000	      0.00000000	     86.50581614	      0.20163327	      4.09827118	      0.01979118	     -3.61026385	      0.19843146	   -113.48027375	      1.98525304	     -0.00147599	      0.00063822	     -0.49394343	      0.00065066	     17.64872085	     -0.00274333	      0.02267679	      0.00095421	     -0.02408539	      0.00015277	     27.10313644	     -0.58718088	     -0.00000000	     -0.00000000	      0.00000000	     -0.00000000	      0.04998290	      0.11237716	      0.04998290	      0.14360366	      0.04998290	      0.14181865	      0.05647797	      0.13678027
      0.00005703	     -9.41308073	     -7.39270761	      8.86707588	      9.36673362	     -0.00000000	     -0.00000000	      0.00000000	      0.00000000	      0.00000000	      0.00000000	     -0.14965250	      0.00000000	     -0.06584239	      0.00000000	      0.00000000	     -0.00000000	     86.50582006	      0.24612489	      4.09827157	      0.02415900	     -3.61026000	      0.24222435	   -113.48023522	      2.42339042	     -0.00147597	      0.00077907	     -0.49394342	      0.00079426	     17.64872080	     -0.00334881	      0.02267680	      0.00116480	     -0.02408538	      0.00018648	     27.10312505	     -0.71676828	     -0.00000000	     -0.00000000	      0.00000000	      0.00000000	      0.04997542	      0.11634022	      0.04997542	      0.14427977	      0.04997542	      0.14769879	      0.05926596	      0.14419290
      0.00007440	     -9.41321736	     -8.28542064	      8.86724899	     10.49781997	     -0.00000000	     -0.00000000	      0.00000000	     -0.00000000	      0.00000000	      0.00000000	     -0.14965250	      0.00000000	     -0.06584239	      0.00000000	      0.00000000	      0.00000000	     86.50582461	      0.27583635	      4.09827201	      0.02707643	     -3.61025552	      0.27147505	   -113.48019043	      2.71603787	     -0.00147596	      0.00087315	     -0.49394340	      0.00089018	     17.64872074	     -0.00375326	      0.02267683	      0.00130546	     -0.02408538	      0.00020900	     27.10311180	     -0.80332349	     -0.00000000	     -0.00000000	      0.00000000	      0.00000000	      0.04996794	      0.11967817	      0.04996793	      0.14451896	      0.04996793	      0.15103005	      0.06202616	      0.14911598
      0.00011514	     -9.41358097	     -9.39547075	      8.86770970	     11.90427325	     -0.00000000	     -0.00000000	     -0.00000000	     -0.00000000	      0.00000000	      0.00000000	     -0.14965250	      0.00000000	     -0.06584239	      0.00000000	      0.00000000	      0.00000000	     86.50583671	      0.31276299	      4.09827320	      0.03070427	     -3.61024360	      0.30784834	   -113.48007123	      3.07994907	     -0.00147592	      0.00099014	     -0.49394336	      0.00100945	     17.64872057	     -0.00425628	      0.02267688	      0.00148037	     -0.02408537	      0.00023700	     27.10307655	     -0.91095344	     -0.00000000	     -0.00000000	      0.00000000	      0.00000000	      0.04995040	      0.12565552	      0.04995039	      0.14473926	      0.04995039	      0.15429447	      0.06839741	      0.15515953
      0.00015588	     -9.41397444	     -9.85673636	      8.86820823	     12.48870045	     -0.00000000	     -0.00000000	     -0.00000000	     -0.00000000	      0.00000000	      0.00000000	     -0.14965250	      0.00000000	     -0.06584239	      0.00000000	      0.00000000	      0.00000000	     86.50584981	      0.32808512	      4.09827449	      0.03221196	     -3.61023071	      0.32296433	   -113.47994225	      3.23118756	     -0.00147588	      0.00103875	     -0.49394332	      0.00105902	     17.64872040	     -0.00446543	      0.02267694	      0.00155306	     -0.02408536	      0.00024864	     27.10303840	     -0.95568033	     -0.00000000	     -0.00000000	      0.00000000	      0.00000000	      0.04993287	      0.12976273	      0.04993286	      0.14481806	      0.04993286	      0.15519800	      0.07462723	      0.15752955
      0.00020632	     -9.41447884	    -10.11149755	      8.86884731	     12.81147960	     -0.00000000	     -0.00000000	     -0.00000000	     -0.00000000	      0.00000000	      0.00000000	     -0.14965250	      0.00000000	     -0.06584239	      0.00000000	      0.00000000	     -0.00000000	     86.50586660	      0.33652180	      4.09827614	      0.03304489	     -3.61021419	      0.33131488	   -113.47977690	      3.31474163	     -0.00147583	      0.00106561	     -0.49394327	      0.00108640	     17.64872017	     -0.00458110	      0.02267702	      0.00159322	     -0.02408535	      0.00025507	     27.10298949	     -0.98038666	     -0.00000000	     -0.00000000	      0.00000000	      0.00000000	      0.04991118	      0.13312600	      0.04991117	      0.14485554	      0.04991117	      0.15559535	      0.08215475	      0.15861433
